<svg width="290" height="100" viewBox="0 0 290 100" xmlns="http://www.w3.org/2000/svg">
    <clipPath id="satori_bct-id">
        <path
            d="M194.2 43.6L194.2 43.6L188.0 43.6Q187.8 42.4 187.3 41.4Q186.8 40.5 185.9 39.8Q185.1 39.1 184.0 38.8Q183.0 38.4 181.7 38.4L181.7 38.4Q179.5 38.4 177.8 39.5Q176.1 40.7 175.2 42.8Q174.3 44.9 174.3 47.9L174.3 47.9Q174.3 51.0 175.2 53.2Q176.1 55.3 177.8 56.4Q179.5 57.4 181.7 57.4L181.7 57.4Q182.9 57.4 184.0 57.1Q185.0 56.8 185.8 56.1Q186.7 55.5 187.2 54.6Q187.8 53.7 188.0 52.5L188.0 52.5L194.2 52.6Q194.0 54.6 193.0 56.4Q192.0 58.3 190.4 59.7Q188.8 61.2 186.6 62.0Q184.4 62.9 181.6 62.9L181.6 62.9Q177.7 62.9 174.6 61.1Q171.6 59.3 169.8 56.0Q168.0 52.7 168.0 47.9L168.0 47.9Q168.0 43.2 169.8 39.8Q171.6 36.5 174.7 34.7Q177.7 33.0 181.6 33.0L181.6 33.0Q184.1 33.0 186.3 33.7Q188.4 34.4 190.1 35.8Q191.8 37.1 192.8 39.1Q193.9 41.0 194.2 43.6ZM225.3 47.9L225.3 47.9Q225.3 52.7 223.5 56.0Q221.8 59.4 218.7 61.1Q215.6 62.9 211.7 62.9L211.7 62.9Q207.8 62.9 204.8 61.1Q201.7 59.3 199.9 56.0Q198.1 52.7 198.1 47.9L198.1 47.9Q198.1 43.2 199.9 39.8Q201.7 36.5 204.8 34.7Q207.8 33.0 211.7 33.0L211.7 33.0Q215.6 33.0 218.7 34.7Q221.8 36.5 223.5 39.8Q225.3 43.2 225.3 47.9ZM219.1 47.9L219.1 47.9Q219.1 44.8 218.2 42.7Q217.3 40.6 215.6 39.5Q214.0 38.4 211.7 38.4L211.7 38.4Q209.5 38.4 207.8 39.5Q206.2 40.6 205.3 42.7Q204.3 44.8 204.3 47.9L204.3 47.9Q204.3 51.0 205.3 53.1Q206.2 55.2 207.8 56.3Q209.5 57.4 211.7 57.4L211.7 57.4Q214.0 57.4 215.6 56.3Q217.3 55.2 218.2 53.1Q219.1 51.0 219.1 47.9ZM236.0 62.5L229.9 62.5L229.9 33.4L241.4 33.4Q244.7 33.4 247.0 34.6Q249.3 35.7 250.6 37.9Q251.8 40.0 251.8 42.9L251.8 42.9Q251.8 45.8 250.5 47.9Q249.3 49.9 246.9 51.1Q244.6 52.2 241.2 52.2L241.2 52.2L233.5 52.2L233.5 47.2L240.2 47.2Q242.0 47.2 243.1 46.7Q244.3 46.3 244.9 45.3Q245.5 44.3 245.5 42.9L245.5 42.9Q245.5 41.4 244.9 40.4Q244.3 39.4 243.1 38.9Q242.0 38.4 240.2 38.4L240.2 38.4L236.0 38.4L236.0 62.5ZM239.0 49.2L245.6 49.2L252.8 62.5L246.0 62.5L239.0 49.2ZM266.5 62.5L266.5 62.5L256.1 62.5L256.1 33.4L266.5 33.4Q270.9 33.4 274.1 35.1Q277.3 36.9 279.0 40.1Q280.7 43.4 280.7 47.9L280.7 47.9Q280.7 52.4 279.0 55.7Q277.3 59.0 274.1 60.7Q270.9 62.5 266.5 62.5ZM262.3 38.7L262.3 57.2L266.2 57.2Q268.9 57.2 270.8 56.2Q272.7 55.3 273.6 53.2Q274.6 51.2 274.6 47.9L274.6 47.9Q274.6 44.7 273.6 42.6Q272.7 40.6 270.8 39.6Q268.9 38.7 266.2 38.7L266.2 38.7L262.3 38.7Z ">
        </path>
    </clipPath>
    <defs>
        <pattern id="satori_pattern_id_0" x="0" y="0" width="1" height="1" patternUnits="objectBoundingBox">
            <linearGradient id="satori_biid_0" x1="0" y1="0" x2="1" y2="0">
                <stop offset="0%" stop-color="rgb(254,202,202)"></stop>
                <stop offset="100%" stop-color="rgb(220,38,38)"></stop>
            </linearGradient>
            <rect x="0" y="0" width="283" height="57" fill="url(#satori_biid_0)"></rect>
        </pattern>
    </defs>
    <mask id="satori_om-id">
        <rect x="0" y="21" width="283" height="57" fill="#fff"></rect>
    </mask>
    <rect x="0" y="21" width="283" height="57" fill="black" clip-path="url(#satori_bct-id)"></rect>
    <rect x="0" y="21" width="283" height="57" fill="url(#satori_pattern_id_0)" clip-path="url(#satori_bct-id)"></rect>
    <clipPath id="satori_bct-id-0">
        <path
            d="M28.2 43.6L28.2 43.6L22.0 43.6Q21.8 42.4 21.3 41.4Q20.8 40.5 19.9 39.8Q19.1 39.1 18.0 38.8Q17.0 38.4 15.7 38.4L15.7 38.4Q13.5 38.4 11.8 39.5Q10.1 40.7 9.2 42.8Q8.3 44.9 8.3 47.9L8.3 47.9Q8.3 51.0 9.2 53.2Q10.1 55.3 11.8 56.4Q13.5 57.4 15.7 57.4L15.7 57.4Q16.9 57.4 18.0 57.1Q19.0 56.8 19.8 56.1Q20.7 55.5 21.2 54.6Q21.8 53.7 22.0 52.5L22.0 52.5L28.2 52.6Q28.0 54.6 27.0 56.4Q26.0 58.3 24.4 59.7Q22.8 61.2 20.6 62.0Q18.4 62.9 15.6 62.9L15.6 62.9Q11.7 62.9 8.6 61.1Q5.6 59.3 3.8 56.0Q2.0 52.7 2.0 47.9L2.0 47.9Q2.0 43.2 3.8 39.8Q5.6 36.5 8.7 34.7Q11.7 33.0 15.6 33.0L15.6 33.0Q18.1 33.0 20.3 33.7Q22.4 34.4 24.1 35.8Q25.8 37.1 26.8 39.1Q27.9 41.0 28.2 43.6ZM44.4 40.0L37.1 62.5L30.5 62.5L40.5 33.4L48.5 33.4L58.5 62.5L51.9 62.5L44.6 40.0L44.4 40.0ZM36.7 55.8L36.7 51.0L52.2 51.0L52.2 55.8L36.7 55.8ZM80.2 33.4L86.3 33.4L86.3 62.5L81.0 62.5L68.4 44.2L68.1 44.2L68.1 62.5L62.0 62.5L62.0 33.4L67.4 33.4L79.9 51.7L80.2 51.7L80.2 33.4ZM89.8 33.4L96.6 33.4L103.7 55.5L103.9 55.5L111.0 33.4L117.8 33.4L107.8 62.5L99.9 62.5L89.8 33.4ZM129.8 40.0L122.5 62.5L115.9 62.5L125.9 33.4L133.8 33.4L143.9 62.5L137.3 62.5L130.0 40.0L129.8 40.0ZM122.0 55.8L122.0 51.0L137.6 51.0L137.6 55.8L122.0 55.8Z ">
        </path>
    </clipPath>
    <defs>
        <pattern id="satori_pattern_id-0_0" x="0" y="0" width="1" height="1" patternUnits="objectBoundingBox">
            <linearGradient id="satori_biid-0_0" x1="0" y1="0" x2="1" y2="0">
                <stop offset="0%" stop-color="rgb(254,202,202)"></stop>
                <stop offset="50%" stop-color="rgb(252,165,165)"></stop>
                <stop offset="100%" stop-color="rgb(254,240,138)"></stop>
            </linearGradient>
            <rect x="0" y="0" width="150" height="57" fill="url(#satori_biid-0_0)"></rect>
        </pattern>
    </defs>
    <mask id="satori_om-id-0">
        <rect x="0" y="21" width="150" height="57" fill="#fff"></rect>
    </mask>
    <rect x="0" y="21" width="150" height="57" fill="url(#satori_pattern_id-0_0)" clip-path="url(#satori_bct-id-0)">
    </rect>
    <clipPath id="satori_bct-id-1">
        <path d="M159.9 32.0L165.1 32.0L155.7 66.8L150.5 66.8L159.9 32.0Z "></path>
    </clipPath>
    <defs>
        <pattern id="satori_pattern_id-1_0" x="0" y="0" width="1" height="1" patternUnits="objectBoundingBox">
            <linearGradient id="satori_biid-1_0" x1="0" y1="0" x2="1" y2="0">
                <stop offset="0%" stop-color="rgb(254,240,138)"></stop>
                <stop offset="50%" stop-color="rgb(251,207,232)"></stop>
                <stop offset="100%" stop-color="rgb(244,114,182)"></stop>
            </linearGradient>
            <rect x="0" y="0" width="16" height="57" fill="url(#satori_biid-1_0)"></rect>
        </pattern>
    </defs>
    <mask id="satori_om-id-1">
        <rect x="150" y="21" width="16" height="57" fill="#fff"></rect>
    </mask>
    <rect x="150" y="21" width="16" height="57" fill="url(#satori_pattern_id-1_0)" clip-path="url(#satori_bct-id-1)">
    </rect>
</svg>